<svg xmlns="http://www.w3.org/2000/svg" width="760" height="428" viewBox="0 0 760 428" role="img" aria-label="laya-codex benchmark: change vs stock Claude Code"><title>laya-codex benchmark: change vs stock Claude Code</title><rect width="760" height="428" rx="8" fill="#0d1117"/><text x="24.0" y="32.0" font-family="-apple-system,BlinkMacSystemFont,'Segoe UI',Helvetica,Arial,sans-serif" font-size="17" fill="#e6edf3" text-anchor="start" font-weight="600">laya-codex vs stock Claude Code: cost, code tokens reaching Claude and turns</text><text x="24.0" y="54.0" font-family="-apple-system,BlinkMacSystemFont,'Segoe UI',Helvetica,Arial,sans-serif" font-size="12" fill="#9198a1" text-anchor="start" font-weight="normal">Paired change vs stock Claude Code · 51 tasks · moon, httpx, hono · claude-sonnet-5 · medium effort · 95% bootstrap CI · grey = no significant change</text><line x1="246.4" y1="66" x2="246.4" y2="388" stroke="#3d444d" stroke-width="1"/><text x="246.4" y="406.0" font-family="-apple-system,BlinkMacSystemFont,'Segoe UI',Helvetica,Arial,sans-serif" font-size="11" fill="#9198a1" text-anchor="middle" font-weight="normal">+20%</text><line x1="309.6" y1="66" x2="309.6" y2="388" stroke="#3d444d" stroke-width="1"/><text x="309.6" y="406.0" font-family="-apple-system,BlinkMacSystemFont,'Segoe UI',Helvetica,Arial,sans-serif" font-size="11" fill="#9198a1" text-anchor="middle" font-weight="normal">+10%</text><line x1="372.8" y1="66" x2="372.8" y2="388" stroke="#3d444d" stroke-width="1"/><text x="372.8" y="406.0" font-family="-apple-system,BlinkMacSystemFont,'Segoe UI',Helvetica,Arial,sans-serif" font-size="11" fill="#9198a1" text-anchor="middle" font-weight="normal">0</text><line x1="435.9" y1="66" x2="435.9" y2="388" stroke="#3d444d" stroke-width="1"/><text x="435.9" y="406.0" font-family="-apple-system,BlinkMacSystemFont,'Segoe UI',Helvetica,Arial,sans-serif" font-size="11" fill="#9198a1" text-anchor="middle" font-weight="normal">−10%</text><line x1="499.1" y1="66" x2="499.1" y2="388" stroke="#3d444d" stroke-width="1"/><text x="499.1" y="406.0" font-family="-apple-system,BlinkMacSystemFont,'Segoe UI',Helvetica,Arial,sans-serif" font-size="11" fill="#9198a1" text-anchor="middle" font-weight="normal">−20%</text><line x1="562.2" y1="66" x2="562.2" y2="388" stroke="#3d444d" stroke-width="1"/><text x="562.2" y="406.0" font-family="-apple-system,BlinkMacSystemFont,'Segoe UI',Helvetica,Arial,sans-serif" font-size="11" fill="#9198a1" text-anchor="middle" font-weight="normal">−30%</text><line x1="625.4" y1="66" x2="625.4" y2="388" stroke="#3d444d" stroke-width="1"/><text x="625.4" y="406.0" font-family="-apple-system,BlinkMacSystemFont,'Segoe UI',Helvetica,Arial,sans-serif" font-size="11" fill="#9198a1" text-anchor="middle" font-weight="normal">−40%</text><line x1="688.6" y1="66" x2="688.6" y2="388" stroke="#3d444d" stroke-width="1"/><text x="688.6" y="406.0" font-family="-apple-system,BlinkMacSystemFont,'Segoe UI',Helvetica,Arial,sans-serif" font-size="11" fill="#9198a1" text-anchor="middle" font-weight="normal">−50%</text><text x="186.0" y="97.0" font-family="-apple-system,BlinkMacSystemFont,'Segoe UI',Helvetica,Arial,sans-serif" font-size="14" fill="#e6edf3" text-anchor="end" font-weight="normal">Cost</text><rect x="372.8" y="80.0" width="55.6" height="24" rx="4" fill="#3fb950"/><line x1="384.8" y1="92.0" x2="475.7" y2="92.0" stroke="#e6edf3" stroke-width="1.5"/><line x1="384.8" y1="86.0" x2="384.8" y2="98.0" stroke="#e6edf3" stroke-width="1.5"/><line x1="475.7" y1="86.0" x2="475.7" y2="98.0" stroke="#e6edf3" stroke-width="1.5"/><text x="483.7" y="97.0" font-family="-apple-system,BlinkMacSystemFont,'Segoe UI',Helvetica,Arial,sans-serif" font-size="14" fill="#e6edf3" text-anchor="start" font-weight="600">−8.8%</text><text x="186.0" y="141.0" font-family="-apple-system,BlinkMacSystemFont,'Segoe UI',Helvetica,Arial,sans-serif" font-size="14" fill="#e6edf3" text-anchor="end" font-weight="normal">Reading + injected</text><rect x="333.6" y="124.0" width="39.2" height="24" rx="4" fill="#6e7681"/><line x1="206.6" y1="136.0" x2="444.1" y2="136.0" stroke="#e6edf3" stroke-width="1.5"/><line x1="206.6" y1="130.0" x2="206.6" y2="142.0" stroke="#e6edf3" stroke-width="1.5"/><line x1="444.1" y1="130.0" x2="444.1" y2="142.0" stroke="#e6edf3" stroke-width="1.5"/><text x="452.1" y="141.0" font-family="-apple-system,BlinkMacSystemFont,'Segoe UI',Helvetica,Arial,sans-serif" font-size="14" fill="#e6edf3" text-anchor="start" font-weight="600">+6.2%</text><text x="186.0" y="185.0" font-family="-apple-system,BlinkMacSystemFont,'Segoe UI',Helvetica,Arial,sans-serif" font-size="14" fill="#e6edf3" text-anchor="end" font-weight="normal">Code-reading tokens</text><rect x="372.8" y="168.0" width="202.1" height="24" rx="4" fill="#3fb950"/><line x1="467.5" y1="180.0" x2="669.6" y2="180.0" stroke="#e6edf3" stroke-width="1.5"/><line x1="467.5" y1="174.0" x2="467.5" y2="186.0" stroke="#e6edf3" stroke-width="1.5"/><line x1="669.6" y1="174.0" x2="669.6" y2="186.0" stroke="#e6edf3" stroke-width="1.5"/><text x="677.6" y="185.0" font-family="-apple-system,BlinkMacSystemFont,'Segoe UI',Helvetica,Arial,sans-serif" font-size="14" fill="#e6edf3" text-anchor="start" font-weight="600">−32.0%</text><text x="186.0" y="229.0" font-family="-apple-system,BlinkMacSystemFont,'Segoe UI',Helvetica,Arial,sans-serif" font-size="14" fill="#e6edf3" text-anchor="end" font-weight="normal">Turns</text><rect x="372.8" y="212.0" width="212.2" height="24" rx="4" fill="#3fb950"/><line x1="540.1" y1="224.0" x2="627.9" y2="224.0" stroke="#e6edf3" stroke-width="1.5"/><line x1="540.1" y1="218.0" x2="540.1" y2="230.0" stroke="#e6edf3" stroke-width="1.5"/><line x1="627.9" y1="218.0" x2="627.9" y2="230.0" stroke="#e6edf3" stroke-width="1.5"/><text x="635.9" y="229.0" font-family="-apple-system,BlinkMacSystemFont,'Segoe UI',Helvetica,Arial,sans-serif" font-size="14" fill="#e6edf3" text-anchor="start" font-weight="600">−33.6%</text><text x="186.0" y="273.0" font-family="-apple-system,BlinkMacSystemFont,'Segoe UI',Helvetica,Arial,sans-serif" font-size="14" fill="#e6edf3" text-anchor="end" font-weight="normal">Total input tokens</text><rect x="372.8" y="256.0" width="137.1" height="24" rx="4" fill="#3fb950"/><line x1="413.2" y1="268.0" x2="594.4" y2="268.0" stroke="#e6edf3" stroke-width="1.5"/><line x1="413.2" y1="262.0" x2="413.2" y2="274.0" stroke="#e6edf3" stroke-width="1.5"/><line x1="594.4" y1="262.0" x2="594.4" y2="274.0" stroke="#e6edf3" stroke-width="1.5"/><text x="602.4" y="273.0" font-family="-apple-system,BlinkMacSystemFont,'Segoe UI',Helvetica,Arial,sans-serif" font-size="14" fill="#e6edf3" text-anchor="start" font-weight="600">−21.7%</text><text x="186.0" y="317.0" font-family="-apple-system,BlinkMacSystemFont,'Segoe UI',Helvetica,Arial,sans-serif" font-size="14" fill="#e6edf3" text-anchor="end" font-weight="normal">Output tokens</text><rect x="372.8" y="300.0" width="125.1" height="24" rx="4" fill="#3fb950"/><line x1="450.4" y1="312.0" x2="542.0" y2="312.0" stroke="#e6edf3" stroke-width="1.5"/><line x1="450.4" y1="306.0" x2="450.4" y2="318.0" stroke="#e6edf3" stroke-width="1.5"/><line x1="542.0" y1="306.0" x2="542.0" y2="318.0" stroke="#e6edf3" stroke-width="1.5"/><text x="550.0" y="317.0" font-family="-apple-system,BlinkMacSystemFont,'Segoe UI',Helvetica,Arial,sans-serif" font-size="14" fill="#e6edf3" text-anchor="start" font-weight="600">−19.8%</text><text x="186.0" y="361.0" font-family="-apple-system,BlinkMacSystemFont,'Segoe UI',Helvetica,Arial,sans-serif" font-size="14" fill="#e6edf3" text-anchor="end" font-weight="normal">Wall-clock time</text><rect x="372.8" y="344.0" width="75.8" height="24" rx="4" fill="#3fb950"/><line x1="400.5" y1="356.0" x2="493.4" y2="356.0" stroke="#e6edf3" stroke-width="1.5"/><line x1="400.5" y1="350.0" x2="400.5" y2="362.0" stroke="#e6edf3" stroke-width="1.5"/><line x1="493.4" y1="350.0" x2="493.4" y2="362.0" stroke="#e6edf3" stroke-width="1.5"/><text x="501.4" y="361.0" font-family="-apple-system,BlinkMacSystemFont,'Segoe UI',Helvetica,Arial,sans-serif" font-size="14" fill="#e6edf3" text-anchor="start" font-weight="600">−12.0%</text></svg>
