<svg xmlns="http://www.w3.org/2000/svg" width="760" height="360" viewBox="0 0 760 360" role="img" aria-label="laya-codex benchmark: turns until Claude has the right code"><title>laya-codex benchmark: turns until Claude has the right code</title><rect width="760" height="360" rx="8" fill="#ffffff"/><text x="24.0" y="32.0" font-family="-apple-system,BlinkMacSystemFont,'Segoe UI',Helvetica,Arial,sans-serif" font-size="17" fill="#1f2328" text-anchor="start" font-weight="600">The journey to the right code</text><text x="24.0" y="54.0" font-family="-apple-system,BlinkMacSystemFont,'Segoe UI',Helvetica,Arial,sans-serif" font-size="12" fill="#59636e" text-anchor="start" font-weight="normal">Share of the 55 tasks where a correct file is in Claude's context, by turn</text><line x1="64" y1="300.0" x2="736" y2="300.0" stroke="#d1d9e0" stroke-width="1"/><text x="56.0" y="304.0" font-family="-apple-system,BlinkMacSystemFont,'Segoe UI',Helvetica,Arial,sans-serif" font-size="11" fill="#59636e" text-anchor="end" font-weight="normal">0%</text><line x1="64" y1="248.0" x2="736" y2="248.0" stroke="#d1d9e0" stroke-width="1"/><text x="56.0" y="252.0" font-family="-apple-system,BlinkMacSystemFont,'Segoe UI',Helvetica,Arial,sans-serif" font-size="11" fill="#59636e" text-anchor="end" font-weight="normal">25%</text><line x1="64" y1="196.0" x2="736" y2="196.0" stroke="#d1d9e0" stroke-width="1"/><text x="56.0" y="200.0" font-family="-apple-system,BlinkMacSystemFont,'Segoe UI',Helvetica,Arial,sans-serif" font-size="11" fill="#59636e" text-anchor="end" font-weight="normal">50%</text><line x1="64" y1="144.0" x2="736" y2="144.0" stroke="#d1d9e0" stroke-width="1"/><text x="56.0" y="148.0" font-family="-apple-system,BlinkMacSystemFont,'Segoe UI',Helvetica,Arial,sans-serif" font-size="11" fill="#59636e" text-anchor="end" font-weight="normal">75%</text><line x1="64" y1="92.0" x2="736" y2="92.0" stroke="#d1d9e0" stroke-width="1"/><text x="56.0" y="96.0" font-family="-apple-system,BlinkMacSystemFont,'Segoe UI',Helvetica,Arial,sans-serif" font-size="11" fill="#59636e" text-anchor="end" font-weight="normal">100%</text><text x="64.0" y="318.0" font-family="-apple-system,BlinkMacSystemFont,'Segoe UI',Helvetica,Arial,sans-serif" font-size="11" fill="#59636e" text-anchor="middle" font-weight="normal">0</text><text x="131.2" y="318.0" font-family="-apple-system,BlinkMacSystemFont,'Segoe UI',Helvetica,Arial,sans-serif" font-size="11" fill="#59636e" text-anchor="middle" font-weight="normal">2</text><text x="198.4" y="318.0" font-family="-apple-system,BlinkMacSystemFont,'Segoe UI',Helvetica,Arial,sans-serif" font-size="11" fill="#59636e" text-anchor="middle" font-weight="normal">4</text><text x="265.6" y="318.0" font-family="-apple-system,BlinkMacSystemFont,'Segoe UI',Helvetica,Arial,sans-serif" font-size="11" fill="#59636e" text-anchor="middle" font-weight="normal">6</text><text x="332.8" y="318.0" font-family="-apple-system,BlinkMacSystemFont,'Segoe UI',Helvetica,Arial,sans-serif" font-size="11" fill="#59636e" text-anchor="middle" font-weight="normal">8</text><text x="400.0" y="318.0" font-family="-apple-system,BlinkMacSystemFont,'Segoe UI',Helvetica,Arial,sans-serif" font-size="11" fill="#59636e" text-anchor="middle" font-weight="normal">10</text><text x="467.2" y="318.0" font-family="-apple-system,BlinkMacSystemFont,'Segoe UI',Helvetica,Arial,sans-serif" font-size="11" fill="#59636e" text-anchor="middle" font-weight="normal">12</text><text x="534.4" y="318.0" font-family="-apple-system,BlinkMacSystemFont,'Segoe UI',Helvetica,Arial,sans-serif" font-size="11" fill="#59636e" text-anchor="middle" font-weight="normal">14</text><text x="601.6" y="318.0" font-family="-apple-system,BlinkMacSystemFont,'Segoe UI',Helvetica,Arial,sans-serif" font-size="11" fill="#59636e" text-anchor="middle" font-weight="normal">16</text><text x="668.8" y="318.0" font-family="-apple-system,BlinkMacSystemFont,'Segoe UI',Helvetica,Arial,sans-serif" font-size="11" fill="#59636e" text-anchor="middle" font-weight="normal">18</text><text x="736.0" y="318.0" font-family="-apple-system,BlinkMacSystemFont,'Segoe UI',Helvetica,Arial,sans-serif" font-size="11" fill="#59636e" text-anchor="middle" font-weight="normal">20</text><text x="400.0" y="338.0" font-family="-apple-system,BlinkMacSystemFont,'Segoe UI',Helvetica,Arial,sans-serif" font-size="12" fill="#59636e" text-anchor="middle" font-weight="normal">Claude's turn (0 = before its first turn)</text><polyline points="64.0,300.0 97.6,300.0 97.6,300.0 131.2,300.0 131.2,292.4 164.8,292.4 164.8,213.0 198.4,213.0 198.4,171.4 232.0,171.4 232.0,167.6 265.6,167.6 265.6,141.2 299.2,141.2 299.2,129.8 332.8,129.8 332.8,129.8 366.4,129.8 366.4,129.8 400.0,129.8 400.0,129.8 433.6,129.8 433.6,122.3 467.2,122.3 467.2,122.3 500.8,122.3 500.8,122.3 534.4,122.3 534.4,122.3 568.0,122.3 568.0,118.5 601.6,118.5 601.6,118.5 635.2,118.5 635.2,118.5 668.8,118.5 668.8,118.5 702.4,118.5 702.4,118.5 736.0,118.5 736.0,118.5" fill="none" stroke="#818b98" stroke-width="3" stroke-linejoin="round"/><polyline points="64.0,300.0 97.6,300.0 97.6,296.2 131.2,296.2 131.2,224.4 164.8,224.4 164.8,201.7 198.4,201.7 198.4,186.5 232.0,186.5 232.0,182.8 265.6,182.8 265.6,175.2 299.2,175.2 299.2,175.2 332.8,175.2 332.8,175.2 366.4,175.2 366.4,171.4 400.0,171.4 400.0,167.6 433.6,167.6 433.6,167.6 467.2,167.6 467.2,167.6 500.8,167.6 500.8,167.6 534.4,167.6 534.4,163.9 568.0,163.9 568.0,163.9 601.6,163.9 601.6,163.9 635.2,163.9 635.2,163.9 668.8,163.9 668.8,163.9 702.4,163.9 702.4,163.9 736.0,163.9 736.0,163.9" fill="none" stroke="#2da44e" stroke-width="2" stroke-linejoin="round" stroke-dasharray="6 5"/><polyline points="64.0,122.3 97.6,122.3 97.6,122.3 131.2,122.3 131.2,122.3 164.8,122.3 164.8,114.7 198.4,114.7 198.4,114.7 232.0,114.7 232.0,110.9 265.6,110.9 265.6,107.1 299.2,107.1 299.2,107.1 332.8,107.1 332.8,107.1 366.4,107.1 366.4,107.1 400.0,107.1 400.0,107.1 433.6,107.1 433.6,107.1 467.2,107.1 467.2,107.1 500.8,107.1 500.8,107.1 534.4,107.1 534.4,107.1 568.0,107.1 568.0,107.1 601.6,107.1 601.6,107.1 635.2,107.1 635.2,107.1 668.8,107.1 668.8,107.1 702.4,107.1 702.4,107.1 736.0,107.1 736.0,107.1" fill="none" stroke="#2da44e" stroke-width="3" stroke-linejoin="round"/><circle cx="64.0" cy="122.3" r="5" fill="#2da44e"/><line x1="70.0" y1="126.3" x2="349.0" y2="187.8" stroke="#59636e" stroke-width="1"/><text x="353.0" y="195.8" font-family="-apple-system,BlinkMacSystemFont,'Segoe UI',Helvetica,Arial,sans-serif" font-size="12" fill="#1f2328" text-anchor="start" font-weight="600">47 of 55 tasks: the right code arrives with the prompt</text><text x="139.2" y="290.0" font-family="-apple-system,BlinkMacSystemFont,'Segoe UI',Helvetica,Arial,sans-serif" font-size="12" fill="#59636e" text-anchor="start" font-weight="normal">stock: first correct file at turn 2</text><line x1="352.96" y1="225.12" x2="378.96" y2="225.12" stroke="#2da44e" stroke-width="3"/><text x="387.0" y="229.1" font-family="-apple-system,BlinkMacSystemFont,'Segoe UI',Helvetica,Arial,sans-serif" font-size="12" fill="#1f2328" text-anchor="start" font-weight="normal">laya-codex: correct code in context (median turn 0)</text><line x1="352.96" y1="245.12" x2="378.96" y2="245.12" stroke="#2da44e" stroke-width="2" stroke-dasharray="6 5"/><text x="387.0" y="249.1" font-family="-apple-system,BlinkMacSystemFont,'Segoe UI',Helvetica,Arial,sans-serif" font-size="12" fill="#1f2328" text-anchor="start" font-weight="normal">laya-codex: first correct Read (median 4)</text><line x1="352.96" y1="265.12" x2="378.96" y2="265.12" stroke="#818b98" stroke-width="3"/><text x="387.0" y="269.1" font-family="-apple-system,BlinkMacSystemFont,'Segoe UI',Helvetica,Arial,sans-serif" font-size="12" fill="#1f2328" text-anchor="start" font-weight="normal">stock Claude Code (median 4)</text></svg>
