<svg xmlns="http://www.w3.org/2000/svg" width="760" height="360" viewBox="0 0 760 360" role="img" aria-label="laya-codex benchmark: turns until Claude has the right code"><title>laya-codex benchmark: turns until Claude has the right code</title><rect width="760" height="360" rx="8" fill="#0d1117"/><text x="24.0" y="32.0" font-family="-apple-system,BlinkMacSystemFont,'Segoe UI',Helvetica,Arial,sans-serif" font-size="17" fill="#e6edf3" text-anchor="start" font-weight="600">The journey to the right code</text><text x="24.0" y="54.0" font-family="-apple-system,BlinkMacSystemFont,'Segoe UI',Helvetica,Arial,sans-serif" font-size="12" fill="#9198a1" text-anchor="start" font-weight="normal">Share of the 60 tasks where a correct file is in Claude's context, by turn</text><line x1="64" y1="300.0" x2="736" y2="300.0" stroke="#3d444d" stroke-width="1"/><text x="56.0" y="304.0" font-family="-apple-system,BlinkMacSystemFont,'Segoe UI',Helvetica,Arial,sans-serif" font-size="11" fill="#9198a1" text-anchor="end" font-weight="normal">0%</text><line x1="64" y1="248.0" x2="736" y2="248.0" stroke="#3d444d" stroke-width="1"/><text x="56.0" y="252.0" font-family="-apple-system,BlinkMacSystemFont,'Segoe UI',Helvetica,Arial,sans-serif" font-size="11" fill="#9198a1" text-anchor="end" font-weight="normal">25%</text><line x1="64" y1="196.0" x2="736" y2="196.0" stroke="#3d444d" stroke-width="1"/><text x="56.0" y="200.0" font-family="-apple-system,BlinkMacSystemFont,'Segoe UI',Helvetica,Arial,sans-serif" font-size="11" fill="#9198a1" text-anchor="end" font-weight="normal">50%</text><line x1="64" y1="144.0" x2="736" y2="144.0" stroke="#3d444d" stroke-width="1"/><text x="56.0" y="148.0" font-family="-apple-system,BlinkMacSystemFont,'Segoe UI',Helvetica,Arial,sans-serif" font-size="11" fill="#9198a1" text-anchor="end" font-weight="normal">75%</text><line x1="64" y1="92.0" x2="736" y2="92.0" stroke="#3d444d" stroke-width="1"/><text x="56.0" y="96.0" font-family="-apple-system,BlinkMacSystemFont,'Segoe UI',Helvetica,Arial,sans-serif" font-size="11" fill="#9198a1" text-anchor="end" font-weight="normal">100%</text><text x="64.0" y="318.0" font-family="-apple-system,BlinkMacSystemFont,'Segoe UI',Helvetica,Arial,sans-serif" font-size="11" fill="#9198a1" text-anchor="middle" font-weight="normal">0</text><text x="131.2" y="318.0" font-family="-apple-system,BlinkMacSystemFont,'Segoe UI',Helvetica,Arial,sans-serif" font-size="11" fill="#9198a1" text-anchor="middle" font-weight="normal">2</text><text x="198.4" y="318.0" font-family="-apple-system,BlinkMacSystemFont,'Segoe UI',Helvetica,Arial,sans-serif" font-size="11" fill="#9198a1" text-anchor="middle" font-weight="normal">4</text><text x="265.6" y="318.0" font-family="-apple-system,BlinkMacSystemFont,'Segoe UI',Helvetica,Arial,sans-serif" font-size="11" fill="#9198a1" text-anchor="middle" font-weight="normal">6</text><text x="332.8" y="318.0" font-family="-apple-system,BlinkMacSystemFont,'Segoe UI',Helvetica,Arial,sans-serif" font-size="11" fill="#9198a1" text-anchor="middle" font-weight="normal">8</text><text x="400.0" y="318.0" font-family="-apple-system,BlinkMacSystemFont,'Segoe UI',Helvetica,Arial,sans-serif" font-size="11" fill="#9198a1" text-anchor="middle" font-weight="normal">10</text><text x="467.2" y="318.0" font-family="-apple-system,BlinkMacSystemFont,'Segoe UI',Helvetica,Arial,sans-serif" font-size="11" fill="#9198a1" text-anchor="middle" font-weight="normal">12</text><text x="534.4" y="318.0" font-family="-apple-system,BlinkMacSystemFont,'Segoe UI',Helvetica,Arial,sans-serif" font-size="11" fill="#9198a1" text-anchor="middle" font-weight="normal">14</text><text x="601.6" y="318.0" font-family="-apple-system,BlinkMacSystemFont,'Segoe UI',Helvetica,Arial,sans-serif" font-size="11" fill="#9198a1" text-anchor="middle" font-weight="normal">16</text><text x="668.8" y="318.0" font-family="-apple-system,BlinkMacSystemFont,'Segoe UI',Helvetica,Arial,sans-serif" font-size="11" fill="#9198a1" text-anchor="middle" font-weight="normal">18</text><text x="736.0" y="318.0" font-family="-apple-system,BlinkMacSystemFont,'Segoe UI',Helvetica,Arial,sans-serif" font-size="11" fill="#9198a1" text-anchor="middle" font-weight="normal">20</text><text x="400.0" y="338.0" font-family="-apple-system,BlinkMacSystemFont,'Segoe UI',Helvetica,Arial,sans-serif" font-size="12" fill="#9198a1" text-anchor="middle" font-weight="normal">Claude's turn (0 = before its first turn)</text><polyline points="64.0,300.0 97.6,300.0 97.6,300.0 131.2,300.0 131.2,300.0 164.8,300.0 164.8,258.4 198.4,258.4 198.4,206.4 232.0,206.4 232.0,196.0 265.6,196.0 265.6,161.3 299.2,161.3 299.2,140.5 332.8,140.5 332.8,137.1 366.4,137.1 366.4,126.7 400.0,126.7 400.0,123.2 433.6,123.2 433.6,119.7 467.2,119.7 467.2,112.8 500.8,112.8 500.8,112.8 534.4,112.8 534.4,105.9 568.0,105.9 568.0,105.9 601.6,105.9 601.6,102.4 635.2,102.4 635.2,102.4 668.8,102.4 668.8,102.4 702.4,102.4 702.4,102.4 736.0,102.4 736.0,102.4" fill="none" stroke="#6e7681" stroke-width="3" stroke-linejoin="round"/><polyline points="64.0,300.0 97.6,300.0 97.6,289.6 131.2,289.6 131.2,192.5 164.8,192.5 164.8,171.7 198.4,171.7 198.4,150.9 232.0,150.9 232.0,137.1 265.6,137.1 265.6,137.1 299.2,137.1 299.2,137.1 332.8,137.1 332.8,133.6 366.4,133.6 366.4,130.1 400.0,130.1 400.0,130.1 433.6,130.1 433.6,126.7 467.2,126.7 467.2,123.2 500.8,123.2 500.8,119.7 534.4,119.7 534.4,119.7 568.0,119.7 568.0,119.7 601.6,119.7 601.6,119.7 635.2,119.7 635.2,119.7 668.8,119.7 668.8,119.7 702.4,119.7 702.4,119.7 736.0,119.7 736.0,119.7" fill="none" stroke="#3fb950" stroke-width="2" stroke-linejoin="round" stroke-dasharray="6 5"/><polyline points="64.0,140.5 97.6,140.5 97.6,140.5 131.2,140.5 131.2,130.1 164.8,130.1 164.8,123.2 198.4,123.2 198.4,116.3 232.0,116.3 232.0,105.9 265.6,105.9 265.6,102.4 299.2,102.4 299.2,102.4 332.8,102.4 332.8,98.9 366.4,98.9 366.4,98.9 400.0,98.9 400.0,98.9 433.6,98.9 433.6,98.9 467.2,98.9 467.2,95.5 500.8,95.5 500.8,95.5 534.4,95.5 534.4,95.5 568.0,95.5 568.0,95.5 601.6,95.5 601.6,95.5 635.2,95.5 635.2,95.5 668.8,95.5 668.8,95.5 702.4,95.5 702.4,95.5 736.0,95.5 736.0,95.5" fill="none" stroke="#3fb950" stroke-width="3" stroke-linejoin="round"/><circle cx="64.0" cy="140.5" r="5" fill="#3fb950"/><line x1="70.0" y1="144.5" x2="349.0" y2="187.8" stroke="#9198a1" stroke-width="1"/><text x="353.0" y="195.8" font-family="-apple-system,BlinkMacSystemFont,'Segoe UI',Helvetica,Arial,sans-serif" font-size="12" fill="#e6edf3" text-anchor="start" font-weight="600">46 of 60 tasks: the right code arrives with the prompt</text><text x="172.8" y="290.0" font-family="-apple-system,BlinkMacSystemFont,'Segoe UI',Helvetica,Arial,sans-serif" font-size="12" fill="#9198a1" text-anchor="start" font-weight="normal">stock: first correct file at turn 3</text><line x1="352.96" y1="225.12" x2="378.96" y2="225.12" stroke="#3fb950" stroke-width="3"/><text x="387.0" y="229.1" font-family="-apple-system,BlinkMacSystemFont,'Segoe UI',Helvetica,Arial,sans-serif" font-size="12" fill="#e6edf3" text-anchor="start" font-weight="normal">laya-codex: correct code in context (median turn 0)</text><line x1="352.96" y1="245.12" x2="378.96" y2="245.12" stroke="#3fb950" stroke-width="2" stroke-dasharray="6 5"/><text x="387.0" y="249.1" font-family="-apple-system,BlinkMacSystemFont,'Segoe UI',Helvetica,Arial,sans-serif" font-size="12" fill="#e6edf3" text-anchor="start" font-weight="normal">laya-codex: first correct Read (median 2)</text><line x1="352.96" y1="265.12" x2="378.96" y2="265.12" stroke="#6e7681" stroke-width="3"/><text x="387.0" y="269.1" font-family="-apple-system,BlinkMacSystemFont,'Segoe UI',Helvetica,Arial,sans-serif" font-size="12" fill="#e6edf3" text-anchor="start" font-weight="normal">stock Claude Code (median 5.5)</text></svg>
