<svg xmlns="http://www.w3.org/2000/svg" width="760" height="330" viewBox="0 0 760 330" role="img" aria-label="Turns per session and output tokens per turn, stock vs laya-codex"><title>Turns per session and output tokens per turn, stock vs laya-codex</title><rect width="760" height="330" rx="8" fill="#ffffff"/><text x="24.0" y="32.0" font-family="-apple-system,BlinkMacSystemFont,'Segoe UI',Helvetica,Arial,sans-serif" font-size="17" fill="#1f2328" text-anchor="start" font-weight="600">Fewer turns, but each turn writes more</text><text x="24.0" y="54.0" font-family="-apple-system,BlinkMacSystemFont,'Segoe UI',Helvetica,Arial,sans-serif" font-size="12" fill="#59636e" text-anchor="start" font-weight="normal">Means per session, stock Claude Code vs laya-codex (v0.1.2 defaults) · benchmark v2, 20 tasks per repo</text><rect x="24" y="71" width="10" height="10" rx="2" fill="#818b98"/><text x="40.0" y="80.0" font-family="-apple-system,BlinkMacSystemFont,'Segoe UI',Helvetica,Arial,sans-serif" font-size="12" fill="#1f2328" text-anchor="start" font-weight="normal">stock Claude Code</text><rect x="169" y="71" width="10" height="10" rx="2" fill="#2da44e"/><text x="185.0" y="80.0" font-family="-apple-system,BlinkMacSystemFont,'Segoe UI',Helvetica,Arial,sans-serif" font-size="12" fill="#1f2328" text-anchor="start" font-weight="normal">laya-codex</text><text x="32.0" y="112.0" font-family="-apple-system,BlinkMacSystemFont,'Segoe UI',Helvetica,Arial,sans-serif" font-size="13" fill="#1f2328" text-anchor="start" font-weight="600">Turns per session</text><line x1="32.0" y1="286" x2="364.0" y2="286" stroke="#d1d9e0" stroke-width="1"/><path d="M61.3,286 v-136.6 q0,-4 4,-4 h16 q4,0 4,4 v136.6 z" fill="#818b98"/><text x="73.3" y="139.4" font-family="-apple-system,BlinkMacSystemFont,'Segoe UI',Helvetica,Arial,sans-serif" font-size="11" fill="#1f2328" text-anchor="middle" font-weight="600">18.8</text><path d="M89.3,286 v-121.6 q0,-4 4,-4 h16 q4,0 4,4 v121.6 z" fill="#2da44e"/><text x="101.3" y="154.4" font-family="-apple-system,BlinkMacSystemFont,'Segoe UI',Helvetica,Arial,sans-serif" font-size="11" fill="#1f2328" text-anchor="middle" font-weight="600">16.8</text><text x="87.3" y="304.0" font-family="-apple-system,BlinkMacSystemFont,'Segoe UI',Helvetica,Arial,sans-serif" font-size="12" fill="#59636e" text-anchor="middle" font-weight="normal">moon</text><path d="M172.0,286 v-90.9 q0,-4 4,-4 h16 q4,0 4,4 v90.9 z" fill="#818b98"/><text x="184.0" y="185.1" font-family="-apple-system,BlinkMacSystemFont,'Segoe UI',Helvetica,Arial,sans-serif" font-size="11" fill="#1f2328" text-anchor="middle" font-weight="600">12.7</text><path d="M200.0,286 v-65.8 q0,-4 4,-4 h16 q4,0 4,4 v65.8 z" fill="#2da44e"/><text x="212.0" y="210.2" font-family="-apple-system,BlinkMacSystemFont,'Segoe UI',Helvetica,Arial,sans-serif" font-size="11" fill="#1f2328" text-anchor="middle" font-weight="600">9.3</text><text x="198.0" y="304.0" font-family="-apple-system,BlinkMacSystemFont,'Segoe UI',Helvetica,Arial,sans-serif" font-size="12" fill="#59636e" text-anchor="middle" font-weight="normal">httpx</text><path d="M282.7,286 v-79.6 q0,-4 4,-4 h16 q4,0 4,4 v79.6 z" fill="#818b98"/><text x="294.7" y="196.4" font-family="-apple-system,BlinkMacSystemFont,'Segoe UI',Helvetica,Arial,sans-serif" font-size="11" fill="#1f2328" text-anchor="middle" font-weight="600">11.2</text><path d="M310.7,286 v-53.0 q0,-4 4,-4 h16 q4,0 4,4 v53.0 z" fill="#2da44e"/><text x="322.7" y="223.0" font-family="-apple-system,BlinkMacSystemFont,'Segoe UI',Helvetica,Arial,sans-serif" font-size="11" fill="#1f2328" text-anchor="middle" font-weight="600">7.6</text><text x="308.7" y="304.0" font-family="-apple-system,BlinkMacSystemFont,'Segoe UI',Helvetica,Arial,sans-serif" font-size="12" fill="#59636e" text-anchor="middle" font-weight="normal">hono</text><text x="388.0" y="112.0" font-family="-apple-system,BlinkMacSystemFont,'Segoe UI',Helvetica,Arial,sans-serif" font-size="13" fill="#1f2328" text-anchor="start" font-weight="600">Output tokens per turn</text><line x1="388.0" y1="286" x2="720.0" y2="286" stroke="#d1d9e0" stroke-width="1"/><path d="M417.3,286 v-86.5 q0,-4 4,-4 h16 q4,0 4,4 v86.5 z" fill="#818b98"/><text x="429.3" y="189.5" font-family="-apple-system,BlinkMacSystemFont,'Segoe UI',Helvetica,Arial,sans-serif" font-size="11" fill="#1f2328" text-anchor="middle" font-weight="600">302</text><path d="M445.3,286 v-104.9 q0,-4 4,-4 h16 q4,0 4,4 v104.9 z" fill="#2da44e"/><text x="457.3" y="171.1" font-family="-apple-system,BlinkMacSystemFont,'Segoe UI',Helvetica,Arial,sans-serif" font-size="11" fill="#1f2328" text-anchor="middle" font-weight="600">363</text><text x="443.3" y="304.0" font-family="-apple-system,BlinkMacSystemFont,'Segoe UI',Helvetica,Arial,sans-serif" font-size="12" fill="#59636e" text-anchor="middle" font-weight="normal">moon</text><path d="M528.0,286 v-74.2 q0,-4 4,-4 h16 q4,0 4,4 v74.2 z" fill="#818b98"/><text x="540.0" y="201.8" font-family="-apple-system,BlinkMacSystemFont,'Segoe UI',Helvetica,Arial,sans-serif" font-size="11" fill="#1f2328" text-anchor="middle" font-weight="600">261</text><path d="M556.0,286 v-100.3 q0,-4 4,-4 h16 q4,0 4,4 v100.3 z" fill="#2da44e"/><text x="568.0" y="175.7" font-family="-apple-system,BlinkMacSystemFont,'Segoe UI',Helvetica,Arial,sans-serif" font-size="11" fill="#1f2328" text-anchor="middle" font-weight="600">348</text><text x="554.0" y="304.0" font-family="-apple-system,BlinkMacSystemFont,'Segoe UI',Helvetica,Arial,sans-serif" font-size="12" fill="#59636e" text-anchor="middle" font-weight="normal">httpx</text><path d="M638.7,286 v-89.6 q0,-4 4,-4 h16 q4,0 4,4 v89.6 z" fill="#818b98"/><text x="650.7" y="186.4" font-family="-apple-system,BlinkMacSystemFont,'Segoe UI',Helvetica,Arial,sans-serif" font-size="11" fill="#1f2328" text-anchor="middle" font-weight="600">312</text><path d="M666.7,286 v-126.8 q0,-4 4,-4 h16 q4,0 4,4 v126.8 z" fill="#2da44e"/><text x="678.7" y="149.2" font-family="-apple-system,BlinkMacSystemFont,'Segoe UI',Helvetica,Arial,sans-serif" font-size="11" fill="#1f2328" text-anchor="middle" font-weight="600">436</text><text x="664.7" y="304.0" font-family="-apple-system,BlinkMacSystemFont,'Segoe UI',Helvetica,Arial,sans-serif" font-size="12" fill="#59636e" text-anchor="middle" font-weight="normal">hono</text></svg>
